<?xml version="1.0" encoding="UTF-8" standalone="no"?>
<svg
   xmlns:dc="http://purl.org/dc/elements/1.1/"
   xmlns:cc="http://creativecommons.org/ns#"
   xmlns:rdf="http://www.w3.org/1999/02/22-rdf-syntax-ns#"
   xmlns:svg="http://www.w3.org/2000/svg"
   xmlns="http://www.w3.org/2000/svg"
   xmlns:sodipodi="http://sodipodi.sourceforge.net/DTD/sodipodi-0.dtd"
   xmlns:inkscape="http://www.inkscape.org/namespaces/inkscape"
   width="24"
   height="24"
   viewBox="0 0 24 24"
   id="svg2"
   version="1.1"
   inkscape:version="0.91 r13725"
   sodipodi:docname="gears.svg">
  <sodipodi:namedview
     pagecolor="#ffffff"
     bordercolor="#666666"
     borderopacity="1"
     objecttolerance="10"
     gridtolerance="10"
     guidetolerance="10"
     inkscape:pageopacity="0"
     inkscape:pageshadow="2"
     inkscape:window-width="1920"
     inkscape:window-height="1178"
     id="namedview8"
     showgrid="false"
     inkscape:zoom="28.90299"
     inkscape:cx="11.354716"
     inkscape:cy="11.738532"
     inkscape:window-x="-8"
     inkscape:window-y="-8"
     inkscape:window-maximized="1"
     inkscape:current-layer="svg2" />
  <metadata
     id="metadata12">
    <rdf:RDF>
      <cc:Work
         rdf:about="">
        <dc:format>image/svg+xml</dc:format>
        <dc:type
           rdf:resource="http://purl.org/dc/dcmitype/StillImage" />
        <dc:title></dc:title>
      </cc:Work>
    </rdf:RDF>
  </metadata>
  <defs
     id="defs10" />
  <path
     id="path4"
     fill="none"
     d="M0 0h24v24h-24z" />
  <g
     id="g7692"
     transform="translate(0.67037639,-0.3810219)">
    <g
       inkscape:label="Gear10"
       transform="translate(9.7611079,15.830846)"
       id="g4892">
      <path
         inkscape:connector-curvature="0"
         id="path4894"
         transform="translate(-9.8960245,-14.103976)"
         d="M 7.8535156,6.9628906 6.8769531,7.2792969 6.8574219,8.6171875 6.8886719,8.7050781 7.3984375,9.6992188 6.1875,10.578125 5.3984375,9.7871094 5.3261719,9.7304688 4.046875,9.3359375 3.4433594,10.166016 l 0.7695312,1.09375 0.078125,0.05273 0.9960938,0.503906 -0.4628906,1.423828 -1.1035157,-0.175781 -0.091797,-0.0039 -1.265625,0.431641 0,1.027343 1.265625,0.433594 0.091797,-0.0039 1.1035157,-0.177735 0.4628906,1.423828 -0.9960938,0.50586 -0.078125,0.05078 -0.7695312,1.09375 0.6035156,0.830078 1.2792969,-0.392578 0.072266,-0.05859 0.7890625,-0.791015 1.2109375,0.878906 -0.5097656,0.996094 -0.03125,0.08594 0.019531,1.337891 0.9765625,0.316406 0.8027344,-1.068359 0.025391,-0.08984 0.171875,-1.103516 1.4980468,0 0.171876,1.103516 0.02539,0.08984 0.802734,1.068359 0.976563,-0.316406 0.01953,-1.337891 -0.03125,-0.08594 -0.509765,-0.996094 1.210937,-0.878906 0.789063,0.791015 0.07226,0.05859 1.279297,0.392578 0.603516,-0.830078 -0.771485,-1.09375 -0.07617,-0.05078 -0.996093,-0.50586 0.460937,-1.423828 1.105469,0.177735 0.0918,0.0039 1.265625,-0.433594 0,-1.027343 -1.265625,-0.431641 -0.0918,0.0039 -1.105469,0.175781 -0.460937,-1.423828 0.996093,-0.503906 0.07617,-0.05273 0.771485,-1.09375 -0.603516,-0.8300785 -1.279297,0.3945313 -0.07226,0.056641 -0.789063,0.7910152 -1.210937,-0.8789058 0.509765,-0.9941407 0.03125,-0.087891 -0.01953,-1.3378906 -0.976563,-0.3164063 -0.802734,1.0703125 -0.02539,0.087891 -0.171876,1.1054687 -1.4980468,0 L 8.6816406,8.1210938 8.65625,8.0332031 7.8535156,6.9628906 Z m 1.7480469,3.3984374 a 3.620795,3.6452599 0 0 1 3.6210935,3.644531 3.620795,3.6452599 0 0 1 -3.6210935,3.646485 3.620795,3.6452599 0 0 1 -3.6191406,-3.646485 3.620795,3.6452599 0 0 1 3.6191406,-3.644531 z"
         style="fill:#000000;fill-opacity:1;stroke:#000000;stroke-width:1" />
    </g>
    <g
       style="fill:#000000;fill-opacity:1"
       id="g7647"
       transform="matrix(0.89844675,0.0125455,-0.0125455,0.89844675,16.028663,6.0197272)"
       inkscape:label="Gear6">
      <path
         id="path7649"
         d="m 2.39706,-0.6469 1.14391,-0.30871 0.05636,-0.00829 1.34791,0.51426 0,0.89928 L 3.59733,0.9639 3.54097,0.95561 2.39706,0.6469 1.75876,1.75246 2.59807,2.58876 2.63343,2.63343 2.86201,4.05788 2.08322,4.50752 0.9639,3.59733 0.9429,3.54437 l -0.3046,-1.145 -1.2766,0 -0.3046,1.145 -0.021,0.05296 -1.11932,0.91019 -0.77879,-0.44964 0.22858,-1.42445 0.03536,-0.04467 0.83931,-0.8363 -0.6383,-1.10556 -1.14391,0.30871 -0.05636,0.00829 -1.34791,-0.51426 0,-0.89928 1.34791,-0.51426 0.05636,0.00829 1.14391,0.30871 0.6383,-1.10556 -0.83931,-0.8363 -0.03536,-0.04467 -0.22858,-1.42445 0.77879,-0.44964 1.11932,0.91019 0.021,0.05296 0.3046,1.145 1.2766,0 0.3046,-1.145 0.021,-0.05296 1.11932,-0.91019 0.77879,0.44964 -0.22858,1.42445 -0.03536,0.04467 -0.83931,0.8363 z"
         style="fill:#000000;fill-opacity:1;stroke:#000000;stroke-width:1"
         inkscape:connector-curvature="0" />
      <circle
         id="path7651"
         style="fill:#000000;fill-opacity:1;stroke:#000000;stroke-width:1"
         cx="0"
         cy="0"
         r="2.3499999" />
    </g>
    <circle
       r="1.245546"
       cy="6.0197272"
       cx="16.028664"
       id="path7690"
       style="fill:#ffffff;fill-opacity:1" />
  </g>
</svg>
