<?xml version="1.0" encoding="utf-8"?>
<svg version="1.1" xmlns="http://www.w3.org/2000/svg" xmlns:xlink="http://www.w3.org/1999/xlink" x="0px" y="0px"
   viewBox="0 0 300 359.7" style="enable-background:new 0 0 300 359.7;" xml:space="preserve">
<path d="M207.6,131.7C130.7,55.5,40.8,21.4,10.8,51.3c-4.1,4.1-7.3,9.9-8.9,16.3c-6.7,24.6,4.8,63.5,30.6,105.6l13.1-12.8
  c-22.3-37-31.3-69.8-26.5-88c1-3.5,2.6-6.4,4.5-8.3c8.9-8.9,33.2-7.3,61.6,4.1c35.4,14,75.6,41.8,110,76.2
  c64.1,63.5,93.8,132.7,85.8,162.7c-1,3.5-2.6,6.4-4.5,8.3c-8.9,8.9-33.2,7.3-61.6-4.1c-15-6.1-31.3-14.7-47.2-25.2l-13,12.7
  c57.7,38.6,112.3,51.3,134.6,29c4.1-4.1,7.3-9.9,8.9-16.3C308.7,272.7,273.6,197.4,207.6,131.7L207.6,131.7z"/>
<path d="M103.3,179.8v179.9l182.1-180.5V0"/>
<path d="M95.7,177l97.9-97V0L11.5,179.8v179.9l84.2-83.5"/>
<path d="M195.2,144.4c33.5,33.5,57.7,68.2,72.1,98.2h19.5c-15-34.8-42.1-74.3-79.1-111C154.1,78.7,94.5,45.8,53,41v17.9
  c9.6,1.3,20.4,4.5,32.2,8.9C120.5,82.3,160.7,110,195.2,144.4L195.2,144.4z"/>
</svg>
