<?xml version="1.0" encoding="utf-8"?>
<svg version="1.1" xmlns="http://www.w3.org/2000/svg" xmlns:xlink="http://www.w3.org/1999/xlink" x="0px" y="0px"
   viewBox="0 0 242.7 216" style="enable-background:new 0 0 242.7 216;" xml:space="preserve">
<g>
  <circle cx="121.4" cy="107.8" r="21.7"/>
  <path d="M121.4,157.4c-30.5,0-57.1-3.6-77-10.4c-12.9-4.4-23.9-10.3-31.7-17C4.4,123,0,115.2,0,107.8c0-14.3,15.7-28.4,42.1-37.5
    c21.6-7.5,49.8-11.7,79.2-11.7c28.9,0,56.7,4.1,78.2,11.5c12.6,4.3,23.2,9.9,30.7,16.2c8.2,6.8,12.5,14.3,12.5,21.6
    c0,14.9-17.6,30-45.9,39.4C176.7,153.8,149.9,157.4,121.4,157.4z M121.4,68.9c-28,0-55.6,4.1-75.8,11.1C28,86.1,10.4,97,10.4,107.8
    c0,4.3,3.2,9.4,9.1,14.4c6.8,5.8,16.6,11.1,28.3,15c18.8,6.4,44.3,9.9,73.6,9.9c27.5,0,53.1-3.5,72.2-9.8
    c26.7-8.9,38.8-21.5,38.8-29.5c0-4.1-3.1-8.9-8.8-13.7c-6.5-5.4-16-10.4-27.4-14.3C175.8,72.8,149.2,68.9,121.4,68.9z"/>
  <path d="M72.1,215.9c-4.4,0-8.3-1-11.6-2.9c-12.4-7.2-16.7-27.8-11.5-55.3c4.3-22.5,14.7-49,29.5-74.5l0,0
    c14.5-25.1,31.8-47.1,49-62c10-8.7,20.2-15.1,29.3-18.5c10-3.7,18.6-3.7,24.9,0c12.9,7.4,17.2,30.2,11.1,59.5
    c-4.3,20.7-14.5,45.8-28.7,70.5c-15.2,26.4-31.6,47.6-47.5,61.5c-10.3,9-20.9,15.6-30.5,19C81.1,215,76.4,215.9,72.1,215.9z
     M87.5,88.4c-14,24.2-24.3,50.2-28.3,71.3c-3.5,18.2-2.8,39,6.5,44.3c7,4,23.8,0.2,44.2-17.7c15-13.1,30.7-33.5,45.3-58.9
    c13.7-23.8,23.5-47.7,27.6-67.4c2.6-12.6,3.2-24,1.6-33c-1.3-7.7-4.1-13.2-7.9-15.4c-3.5-2-9.3-1.8-16.2,0.8
    c-8,2.9-17,8.7-26.1,16.6C118,43.2,101.4,64.3,87.5,88.4L87.5,88.4z"/>
  <path d="M170.6,216c-11.8,0-26.7-7.1-42.2-20.5c-17.3-15-35-37.2-49.8-62.7l0,0C64,107.7,53.7,81.7,49.3,59.3
    c-2.5-13-3-25-1.4-34.7C49.7,14.2,54,6.7,60.4,3c12.9-7.5,34.8,0.2,57.1,20c15.8,14,32.4,35.4,46.7,60.1
    c15.3,26.4,25.5,51.2,29.6,71.9c2.6,13.4,3.1,25.8,1.2,35.9c-2,10.8-6.5,18.4-13,22.2C178.7,215,174.9,216,170.6,216z M87.5,127.6
    c14,24.2,31.4,46.1,47.6,60.1c14,12.1,32.4,21.9,41.7,16.5c7-4,12.1-20.5,6.8-47.1c-3.9-19.5-13.7-43.3-28.3-68.7
    c-13.8-23.8-29.6-44.2-44.6-57.6c-9.6-8.5-19.2-14.7-27.7-17.9c-7.3-2.8-13.5-3.1-17.2-0.9c-3.5,2-6.2,7.2-7.4,14.4
    c-1.4,8.4-1,19.1,1.3,30.9C63.6,78.5,73.6,103.5,87.5,127.6L87.5,127.6z"/>
</g>
</svg>
