<?xml version="1.0" encoding="utf-8"?>
<svg version="1.1" xmlns="http://www.w3.org/2000/svg" xmlns:xlink="http://www.w3.org/1999/xlink" x="0px" y="0px"
   viewBox="0 0 248.3 216" style="enable-background:new 0 0 248.3 216;" xml:space="preserve">
<path d="M188.7,109.8l-19.5-19.5L191.6,68V17.2h-18.3v43.2l-17,17l-16.8-16.8V17.2h-18.3v51l41.6,41.6h-25.9L70.3,43.1V0H52v50.7
  l22.4,22.5H48.3l-30-30.1V0H0v50.7l40.8,40.8h52l18.3,18.3h-52l43,43L39,216h25.9l63.2-63.2l-24.8-24.8H230v9.1l-56.2,33.6
  L128.4,216h25.7l30-30.1l64.2-38.3v-37.8L188.7,109.8z M140.1,139.9l12.9,12.9l12.9-12.9H140.1z"/>
</svg>
