<?xml version="1.0" encoding="utf-8"?>
<svg version="1.1" xmlns="http://www.w3.org/2000/svg" xmlns:xlink="http://www.w3.org/1999/xlink" x="0px" y="0px"
  viewBox="0 0 16 16" style="enable-background:new 0 0 16 16;" xml:space="preserve">
<path d="M12.1,13.7c-1.9,1.1-4.5,1.2-7.1,0.1c-2.1-0.9-3.9-2.5-5-4.3c0.5,0.5,1.2,0.8,1.8,1.1c2.7,1.3,5.4,1.2,7.3,0l0,0
  c-2.7-2.1-5-4.8-6.7-7C2.1,3.3,1.8,2.8,1.5,2.4c2.1,1.9,5.3,4.3,6.5,5C5.6,4.8,3.4,1.5,3.5,1.6c3.9,4,7.5,6.2,7.5,6.2
  C11.1,7.9,11.2,8,11.3,8c0.1-0.2,0.1-0.4,0.2-0.6c0.6-2.3-0.1-4.9-1.7-7.1c3.6,2.2,5.8,6.3,4.9,9.8c0,0.1-0.1,0.2-0.1,0.3
  c0,0,0,0,0,0c1.8,2.2,1.3,4.6,1.1,4.2C14.8,12.7,13,13.3,12.1,13.7L12.1,13.7z"/>
</svg>
