<?xml version="1.0" encoding="utf-8"?>
<svg version="1.1" xmlns="http://www.w3.org/2000/svg" xmlns:xlink="http://www.w3.org/1999/xlink" x="0px" y="0px"
	 viewBox="0 0 215.7 193.3" style="enable-background:new 0 0 215.7 193.3;" xml:space="preserve">
<path d="M162.7,180c-25.4,14.7-60.4,16.2-95.5,1.1C38.8,169,15.1,147.8,0,123.5c7.3,6.1,15.7,10.9,24.8,15.1
	c36.3,17,72.6,15.9,98.1,0c0,0,0,0,0,0c-36.3-27.9-67.2-64.2-90.2-93.9c-4.8-4.8-8.5-10.9-12.1-16.4C48.4,53.9,92.7,86,108.4,95.1
	C75.1,60,45.4,16.4,46.6,17.6c52.7,53.3,101.7,83.6,101.7,83.6c1.6,0.9,2.9,1.7,3.9,2.4c1.1-2.7,2-5.5,2.8-8.4
	c8.5-30.9-1.2-66-22.4-95.1c49.1,29.7,78.1,85.4,66,132c-0.3,1.3-0.7,2.5-1,3.7c0.1,0.2,0.3,0.3,0.4,0.5
	c24.2,30.3,17.6,62.4,14.5,56.3C199.4,166.9,175.1,174.7,162.7,180L162.7,180z"/>
</svg>
