<?xml version="1.0" encoding="utf-8"?>
<!-- Generator: Adobe Illustrator 19.2.1, SVG Export Plug-In . SVG Version: 6.00 Build 0)  -->
<svg version="1.1" id="Layer_1" xmlns="http://www.w3.org/2000/svg" xmlns:xlink="http://www.w3.org/1999/xlink" x="0px" y="0px"
   viewBox="0 0 14 16" enable-background="new 0 0 14 16" xml:space="preserve">
<path d="M17.6,10.1L16,9.9l-2-0.3V5c0-0.5-0.5-1-1-1H7V3c0-0.7-0.3-1-1-1H1C0.5,2,0,2.5,0,3v10c0,0.5,0.5,1,1,1h7.3L8,15.7l-0.3,1.6
  l1.4-0.8l2.3-1.2l2.3,1.2l1.4,0.8L15,15.7l-0.4-2.6l1.9-1.8L17.6,10.1z M8.8,15.8l0.5-3l-2.2-2.1l3-0.4l1.4-2.8l1.4,2.8l3,0.4
  l-2.2,2.1l0.5,3l-2.7-1.4L8.8,15.8z M1,3h5v1H1V3z"/>
</svg>
