<?xml version="1.0" encoding="utf-8"?>
<svg version="1.1" xmlns="http://www.w3.org/2000/svg" xmlns:xlink="http://www.w3.org/1999/xlink" x="0px" y="0px"
   viewBox="0 0 18 18" enable-background="new 0 0 18 18" xml:space="preserve">
<path d="M5.3,1.7C4.1,2.9,4.4,4.9,4.4,4.9s1.2,1.4,3.5,1.4c2.3,0,3.5-1.4,3.5-1.4s0.3-2-0.8-3.2c0.7-0.4,1.1-1,1-1.4
  c-0.2-0.4-1.1-0.5-1.9-0.1C9.3,0.4,9,0.6,8.8,0.8c-0.3,0-0.6-0.1-0.9-0.1c-0.3,0-0.6,0-0.8,0.1C6.9,0.6,6.6,0.4,6.3,0.3
  C5.4-0.1,4.6-0.1,4.4,0.4C4.2,0.7,4.6,1.3,5.3,1.7z"/>
<path d="M10.5,14.8c0-2,1.3-3.6,3.1-4.2v-0.1c0-0.7-0.1-1.4-0.3-2.1c0.4,0,0.8-0.1,1.3-0.3c0.9-0.4,1.4-1.1,1.2-1.5
  c-0.2-0.4-1.1-0.5-1.9-0.1c-0.4,0.2-0.7,0.4-1,0.7c-0.2-0.4-0.4-0.8-0.6-1.1c-0.7,0.6-1.9,1.4-3.7,1.6v7.1c0,0,0,0.7-0.7,0.7
  c-0.7,0-0.7-0.7-0.7-0.7V7.7c-1.7-0.2-3-1-3.7-1.6C3.4,6.5,3.2,6.8,3,7.2C2.8,7,2.5,6.8,2.1,6.6C1.2,6.2,0.4,6.2,0.2,6.7
  C0,7.1,0.5,7.8,1.4,8.2c0.4,0.2,0.9,0.3,1.2,0.3c-0.2,0.7-0.3,1.4-0.3,2.1v0.1c-0.1,0-0.3,0-0.5,0.1c-1.1,0.2-2,0.8-1.9,1.3
  c0.1,0.5,1,0.7,2.2,0.5c0.1,0,0.3-0.1,0.4-0.1c0.2,0.9,0.5,1.7,1,2.4C3.3,15,3,15.2,2.7,15.4c-0.7,0.7-1,1.5-0.6,1.9
  c0.3,0.3,1.2,0.1,1.9-0.6c0.2-0.2,0.4-0.4,0.5-0.6c1,0.9,2.1,1.5,3.5,1.5c1,0,2-0.4,2.9-1C10.6,16.1,10.5,15.5,10.5,14.8z"/>
<path d="M14.9,11.7c-1.7,0-3.2,1.4-3.2,3.1c0,1.7,1.4,3.2,3.2,3.2c1.7,0,3.1-1.4,3.1-3.2C18,13.1,16.6,11.7,14.9,11.7z M17.2,14.8
  c0,0.5-0.1,0.9-0.4,1.3l-3.3-3.3c0.4-0.2,0.8-0.4,1.3-0.4C16.2,12.5,17.2,13.5,17.2,14.8z M12.5,14.8c0-0.5,0.1-0.9,0.4-1.3l3.3,3.3
  c-0.4,0.2-0.8,0.4-1.3,0.4C13.5,17.2,12.5,16.2,12.5,14.8z"/>
</svg>
