<?xml version="1.0" encoding="utf-8"?>
<svg version="1.1" xmlns="http://www.w3.org/2000/svg" xmlns:xlink="http://www.w3.org/1999/xlink" x="0px" y="0px"
   viewBox="0 0 14.2 16" xml:space="preserve">
<path d="M13.5,10.1c-0.1-0.1-0.3-0.1-0.4-0.2V6c0.1,0,0.3-0.1,0.4-0.1C14.2,5.6,14.4,4.7,14,4s-1.2-0.9-1.9-0.5
  c-0.1,0.1-0.2,0.2-0.3,0.3L8.4,1.8c0-0.1,0.1-0.3,0.1-0.4C8.5,0.6,7.9,0,7.1,0C6.3,0,5.7,0.7,5.7,1.5c0,0.1,0,0.2,0.1,0.3L2.4,3.8
  C2.3,3.7,2.2,3.6,2.1,3.5C1.5,3.1,0.6,3.3,0.2,4C-0.2,4.7,0,5.6,0.7,5.9C0.8,6,1,6,1.1,6V10C1,10,0.8,10,0.7,10.1
  C0,10.4-0.2,11.3,0.2,12c0.4,0.7,1.3,0.9,1.9,0.5c0.1-0.1,0.2-0.2,0.3-0.3l3.3,1.9c0,0.1-0.1,0.3-0.1,0.4c0,0.8,0.6,1.4,1.4,1.4
  c0.8,0,1.4-0.6,1.4-1.4c0-0.2,0-0.3-0.1-0.5l3.3-2c0.1,0.1,0.2,0.2,0.4,0.3c0.6,0.4,1.5,0.2,1.9-0.5S14.2,10.4,13.5,10.1z M2.7,10.9
  c0-0.1,0-0.2-0.1-0.3c0-0.1-0.1-0.2-0.2-0.3l4.3-7.5c0.1,0,0.3,0.1,0.4,0.1c0.1,0,0.3,0,0.4-0.1l4.3,7.5c-0.1,0.1-0.2,0.2-0.2,0.3
  c-0.1,0.1-0.1,0.2-0.1,0.3H2.7z M11.4,4.4c-0.1,0.3,0,0.7,0.2,1c0.2,0.3,0.5,0.5,0.8,0.6V10L8.1,2.4c0,0,0,0,0,0L11.4,4.4z M6.1,2.5
  L1.8,9.9c0,0,0,0,0,0V6.1C2.2,6,2.5,5.8,2.7,5.4c0.1-0.3,0.2-0.7,0.1-1L6.1,2.5C6.1,2.5,6.1,2.5,6.1,2.5z M7.1,13.2
  c-0.4,0-0.7,0.1-1,0.4l-3.4-2c0,0,0,0,0,0h8.7c0,0,0,0,0,0.1l-3.3,2C7.9,13.4,7.5,13.2,7.1,13.2z"/>
</svg>
