<?xml version="1.0" encoding="utf-8"?>
<svg version="1.1" id="Layer_1" xmlns="http://www.w3.org/2000/svg" xmlns:xlink="http://www.w3.org/1999/xlink" x="0px" y="0px"
   viewBox="0 0 216 216" style="enable-background:new 0 0 216 216;" xml:space="preserve">
<rect x="5.1" y="86.8" width="46.7" height="129.1"/>
<path d="M210.9,119.2c0-7.3-4-13.8-10-17.2c4.8-3.6,7.8-9.4,7.8-15.8c0-10.9-8.9-19.9-19.7-19.9h-66.7c11-57.5-16.9-69.2-27.9-66.4
  C87.8,1.6,87-0.3,88.2,13L90.1,36c0.2,1.9,0,3.9-0.4,5.8c-0.4,1.9-1.5,3.7-2.5,5.4L62.8,86.4v112.7h105.5v-0.6
  c10.4-0.6,18.6-9.4,18.6-19.9c0-3.3-0.8-6.5-2.2-9.2c9.3-1.5,16.4-9.7,16.4-19.5c0-4.4-1.5-8.6-4-11.9
  C205,135.4,210.9,128,210.9,119.2z"/>
</svg>
