<svg xmlns="http://www.w3.org/2000/svg" viewBox="0 0 314.1 345.5">
  <path fill="#000" d="M304.6 170.1c0-20.8-14.3-38.3-33.5-43.3L314.1 0H101l43.1 127.2c-18.6 5.4-32.3 22.6-32.3 43 0 15 7.5 28.3 18.9 36.5-4.5 6.4-9.7 12.3-15.6 17.9C104 235 91.7 243 78.4 248.3c-12-8.1-17.2-22.4-12.5-35.2 18.3-5.6 31.6-22.7 31.6-42.8 0-24.7-20.1-44.7-44.7-44.7-24.7 0-44.8 20.1-44.8 44.8 0 12.2 5 23.4 13 31.4-.7 1.4-1.4 2.8-2.1 4.3-6.7 13.8-14.3 29.4-17.2 46.9-5.8 35 3.7 63.1 26.6 79 12.9 8.9 27.1 13.4 42.4 13.4 26.3 0 53-13.2 78.8-26 18.4-9.1 37.4-18.6 56.1-23.2 6.9-1.7 14.1-2.7 21.7-3.8 15.4-2.2 31.3-4.5 45.6-12.8 16.7-9.7 28.1-25.9 31.4-44.5 2.5-14.3 0-28.7-6.4-41.3 4.3-6.9 6.7-15 6.7-23.7zm-19.5 0c0 13.9-11.3 25.2-25.2 25.2-13.9 0-25.2-11.3-25.2-25.2 0-4.5 1.2-8.8 3.3-12.5.8-1.4 1.8-2.8 2.8-4 1-1.2 2.2-2.3 3.5-3.3l.1-.1c.8-.6 1.7-1.2 2.6-1.8 0 0 .1 0 .1-.1.4-.2.8-.5 1.2-.7.1 0 .2-.1.3-.1.4-.2.9-.4 1.4-.6.5-.2 1-.4 1.4-.6.1 0 .2-.1.3-.1.4-.1.8-.3 1.2-.4.1 0 .3-.1.4-.1.5-.1.9-.2 1.4-.3h.1l1.5-.3c.1 0 .3 0 .4-.1.4 0 .8-.1 1.2-.1h.5c.5 0 1-.1 1.6-.1h1.3c.4 0 .7 0 1.1.1h.2c.8.1 1.6.2 2.4.4 11.4 2.4 20.1 12.6 20.1 24.8zM128.9 20h157.3l-36.1 106.5c-1.5.3-3 .8-4.5 1.3l-38-77.5-38.1 77c-1.5-.5-3.1-.8-4.7-1.1L128.9 20zm71.5 141.4c-1.9-9.4-6.7-17.8-13.5-24l20.7-41.8 20.9 42.7c-6.2 6.2-10.7 14.1-12.5 23.1h-15.6zm-50.1-15.8c.5-.1.9-.2 1.4-.3h.3c.4-.1.8-.1 1.2-.2h.4c.4 0 .7-.1 1.1-.1h3.9c.4 0 .7.1 1 .1.2 0 .3 0 .5.1.4.1.7.1 1.1.2.1 0 .2 0 .4.1.5.1 1 .2 1.4.3h.1c.4.1.8.2 1.2.4.1 0 .2.1.4.1.3.1.7.2 1 .4.1 0 .2.1.3.1.4.2.8.3 1.2.5h.1c.5.2.9.4 1.3.7h.1c.4.2.8.5 1.2.7.1 0 .1.1.2.1.4.2.7.5 1.1.7l.1.1c1.2.9 2.3 1.9 3.4 2.9l.1.1c1 1.1 2 2.3 2.8 3.6 2.6 4 4.1 8.7 4.1 13.8 0 13.9-11.3 25.2-25.2 25.2s-25.2-11.3-25.2-25.2c-.1-11.7 8-21.6 19-24.4zm-98.4-.7c13.9 0 25.2 11.3 25.2 25.2s-11.3 25.2-25.2 25.2-25.2-11.3-25.2-25.2 11.3-25.2 25.2-25.2zm232.6 86.7c-2.2 12.8-10.1 24-21.7 30.7-10.9 6.3-24.3 8.3-38.4 10.3-7.7 1.1-15.8 2.3-23.6 4.2-20.8 5.1-40.8 15.1-60.2 24.7-24.8 12.3-48.2 23.9-69.9 23.9-11.3 0-21.4-3.2-31-9.9-22-15.2-20.9-43.7-18.3-59.3 2.4-14.6 9.1-28.3 15.5-41.4.4-.8.7-1.5 1.1-2.3 2.2.8 4.5 1.4 6.9 1.8-3.8 21.2 7 43.1 28 53.9l3.8 2 4.1-1.5c17.5-6.2 33.7-16.3 48-29.8 8.1-7.6 15-15.8 20.8-24.7 2.3.4 4.6.5 6.9.5 20.8 0 38.3-14.3 43.3-33.5h16.8c5 19.3 22.5 33.5 43.3 33.5 8.3 0 16-2.3 22.6-6.2 2.6 7.5 3.4 15.3 2 23.1z"/>
</svg>
