<?xml version="1.0" encoding="utf-8"?>
<svg version="1.1" xmlns:svg="http://www.w3.org/2000/svg"
   xmlns="http://www.w3.org/2000/svg" xmlns:xlink="http://www.w3.org/1999/xlink" x="0px" y="0px" viewBox="0 0 79.4 100"
   enable-background="new 0 0 79.4 100" xml:space="preserve">
<path d="M5.4,36.9l6.9-11.2L1.4,20.8l1.6-5.1l11.6,3.1l0.9-12.7h5.6l0.9,12.7l11.5-3.1l1.6,5.1l-10.9,4.9l6.9,11.2L26.5,40
  l-8.3-10.1L10,40L5.4,36.9z"/>
<path d="M45.6,0h14.5c2.4,0,4.7,0.2,6.8,0.5c2.1,0.3,3.9,1,5.4,1.9c1.5,0.9,2.7,2.1,3.6,3.6c0.9,1.5,1.3,3.3,1.3,5.6
  c0,1-0.1,2.1-0.5,3.1s-0.8,2-1.5,2.9c-0.7,0.9-1.5,1.7-2.5,2.4c-1,0.7-2.2,1.2-3.6,1.6v0.3c3.3,0.6,5.9,1.8,7.6,3.6
  c1.7,1.8,2.6,4.2,2.6,7.4c0,2.4-0.5,4.4-1.4,6.1c-0.9,1.7-2.2,3.1-3.8,4.3c-1.6,1.1-3.5,2-5.7,2.5c-2.2,0.5-4.5,0.8-7,0.8H45.6
  L45.6,0L45.6,0z M59.7,18.7c2.6,0,4.4-0.5,5.6-1.5c1.1-1,1.7-2.4,1.7-4.2s-0.6-3-1.8-3.8c-1.2-0.7-3-1.1-5.5-1.1h-3.7v10.6H59.7z
   M60.7,38.4c5.6,0,8.4-2.1,8.4-6.4c0-2-0.7-3.5-2-4.5c-1.4-0.9-3.5-1.4-6.4-1.4h-4.6v12.2H60.7z"/>
<path d="M0,76.1c0-3.9,0.5-7.4,1.7-10.4c1.1-3,2.6-5.6,4.6-7.6c1.9-2.1,4.2-3.7,6.8-4.7s5.4-1.6,8.4-1.6c3.1,0,5.8,0.6,8,1.8
  c2.2,1.2,4.1,2.6,5.6,4.1l-5.8,6.5c-1-1-2.1-1.8-3.3-2.4c-1.2-0.6-2.7-0.9-4.6-0.9c-1.5,0-2.9,0.3-4.2,1c-1.3,0.7-2.4,1.7-3.4,3
  c-0.9,1.3-1.7,2.8-2.2,4.7c-0.5,1.9-0.8,3.9-0.8,6.3c0,4.8,0.9,8.5,2.8,11.2c1.8,2.6,4.6,4,8.3,4c0.9,0,1.8-0.1,2.6-0.3
  c0.8-0.2,1.5-0.6,2-1.1v-8h-6.8V73h16.2v21.4c-1.6,1.5-3.7,2.8-6.2,3.9c-2.6,1.1-5.3,1.7-8.3,1.7s-5.8-0.5-8.4-1.5
  c-2.6-1-4.9-2.5-6.8-4.5c-1.9-2-3.4-4.5-4.5-7.4C0.5,83.5,0,80,0,76.1z"/>
<path d="M49.3,86.1c1.8,1.4,3.7,2.6,5.7,3.5c2.1,0.9,4.1,1.4,6.2,1.4c2.4,0,4.2-0.4,5.3-1.2c1.1-0.8,1.7-1.9,1.7-3.3
  c0-0.7-0.2-1.3-0.5-1.9c-0.3-0.5-0.8-1-1.4-1.4S64.9,82.4,64,82c-0.9-0.3-1.9-0.7-3-1.2l-6-2.6c-1.3-0.5-2.5-1.1-3.7-1.9
  c-1.2-0.7-2.3-1.6-3.2-2.7c-0.9-1-1.6-2.2-2.2-3.6c-0.5-1.4-0.8-2.9-0.8-4.6c0-1.9,0.4-3.7,1.2-5.4c0.8-1.7,2-3.2,3.5-4.4
  c1.5-1.3,3.3-2.2,5.4-3c2.1-0.7,4.4-1.1,6.9-1.1c2.8,0,5.6,0.5,8.3,1.6c2.7,1,5.1,2.6,7.2,4.6l-5.4,6.6c-1.6-1.2-3.2-2.1-4.8-2.8
  c-1.6-0.6-3.4-1-5.3-1c-2,0-3.6,0.4-4.7,1.1c-1.1,0.7-1.7,1.8-1.7,3.1c0,1.4,0.7,2.5,2.1,3.2c1.4,0.7,3.2,1.5,5.5,2.3l5.6,2.4
  c3.1,1.1,5.5,2.7,7.3,4.7c1.8,2,2.7,4.6,2.7,7.9c0,2-0.4,3.8-1.2,5.5c-0.8,1.7-2,3.2-3.5,4.6c-1.5,1.3-3.4,2.4-5.6,3.1
  c-2.2,0.8-4.8,1.2-7.7,1.2c-3.1,0-6.2-0.5-9.3-1.7c-3.1-1.1-5.9-2.8-8.4-5L49.3,86.1z"/>
</svg>
