<?xml version="1.0" encoding="utf-8"?>
<svg
  xmlns:xlink="http://www.w3.org/1999/xlink"
  x="0px"
  y="0px"
  version="1.1"
  viewBox="0 0 1024 930"
  xml:space="preserve"
  xmlns="http://www.w3.org/2000/svg"
  style="enable-background:new 0 0 1024 930"
>
  <g id="Rings">
    <path d="M809,280c31-130,19-233-42-268S609,19,511,112C413,20,316-21,255,14s-73,139-41,269C85,321,0,383,0,452S85,584,215,622c-31,130-19,233,42,268,48,28,119,8,194-48a51,51,0,0,1-25-33c-58,44-111,60-145,40-46-26-52-109-24-217a1001,1001,0,0,0,100,18,50,50,0,0,1,43-67l-31-50c-16-27-30-54-44-81,13-27,28-55,44-83s32-53,49-78c31-2,62-4,94-4s63,1,92,3c17,25,34,51,50,79s21,36,30,54a52,52,0,0,1,73-10l5,4a973,973,0,0,0,35-96c109,30,180,76,179,128,0,39-39,75-104,103a50,50,0,0,1,17,38c83-37,134-87,134-141C1024,380,939,318,809,280ZM226,581C117,551,47,505,47,452s70-99,178-129a1007,1007,0,0,0,50,129A1007,1007,0,0,0,226,581Zm103-26,32,51c-33-4-63-9-92-15,9-28,20-57,32-87Zm1-208-29,53c-13-30-24-59-33-86,29-6,60-12,92-16Zm63-98a1038,1038,0,0,0-137,23C227,164,233,80,279,54s121,10,202,88A1017,1017,0,0,0,393,249Zm120-6-61,2c20-26,39-50,59-71,20,21,40,45,60,71ZM723,398l-28-50-32-51c33,4,63,9,92,15C746,339,736,368,723,398Zm44-128a1038,1038,0,0,0-138-22,1017,1017,0,0,0-89-106C621,63,696,26,742,53S795,162,767,270Z"/>
  </g>
  <g id="Bug">
    <g id="Legs">
      <path d="M731,435a20,20,0,0,0-24,15h0l-21,88,39,9,21-88a20,20,0,0,0-15-24Z"/>
      <path d="M858,582a20,20,0,0,0-26-10l-84,36,16,36,84-36A20,20,0,0,0,858,582Z"/>
      <path d="M882,729l-88-23-10,38,88,23a20,20,0,1,0,10-38Z"/>
      <path d="M415,616a20,20,0,0,0-12,38l87,26,12-38Z"/>
      <path d="M538,728l-73,54a20,20,0,0,0-4,28h0a20,20,0,0,0,28,4h0l73-54Z"/>
      <path d="M597,818l-24,87a20,20,0,0,0,39,11h0l24-87Z"/>
    </g>
    <g id="Head_Ring">
      <path d="M799,654h0L741,551h0a143,143,0,0,0-103-70c-14,55-64,96-125,96a130,130,0,0,1-31-4,140,140,0,0,0,10,116h0l59,103h0a144,144,0,0,0,177,62L595,628h0a20,20,0,0,1,34-20h0L762,834A140,140,0,0,0,799,654Z"/>
    </g>
    <g id="Head">
      <ellipse cx="514" cy="450" rx="90" ry="90"/>
    </g>
  </g>
</svg>
