<?xml version="1.0" encoding="utf-8"?>
<svg version="1.1" id="Layer_1" xmlns="http://www.w3.org/2000/svg" xmlns:xlink="http://www.w3.org/1999/xlink" x="0px" y="0px" viewBox="0 0 300 359.7" style="enable-background:new 0 0 300 359.7;" xml:space="preserve">
<g>
  <path d="M293.2,215.6l-40.9-24.4l-25.1,15l32.3,19.3l-106,63.3c-0.3,0.1-1.5,0.5-3.4,0.5c-1.9,0-3.1-0.4-3.2-0.4L40.6,225.4,
    l32.3-19.3l-25.1-15L6.8,215.6c-9.1,5.4-9.1,14.2,0,19.6l126.8,75.7c4.5,2.7,10.5,4.1,16.4,4.1s11.9-1.4,16.4-4.1l126.8-75.7
    C302.3,229.7,302.3,221,293.2,215.6z"/>
  <path d="M150,46.3c-5.9,0-11.9,1.4-16.4,4.1L6.8,126c-9.1,5.4-9.1,14.2,0,19.6l126.8,75.7c4.5,2.7,10.5,4.1,16.4,4.1
    c5.9,0,11.9-1.4,16.4-4.1l126.8-75.7c9.1-5.4,9.1-14.2,0-19.6L166.4,50.4C161.9,47.6,155.9,46.3,150,46.3"/>
</g>
</svg>
