<svg xmlns="http://www.w3.org/2000/svg" x="0" y="0" viewBox="0 0 16 16">
  <path d="M2.50502 9.20342L2.5 5.32212c.00198-.2103.11713-.40333.30154-.50547a.58784.58784 0 0 1 .58979.0118l4.60718 2.78632 4.60917-2.79126a.58685.58685 0 0 1 .59028-.01268c.18465.10226.2997.29578.30105.50636L13.5 10.6351l-.00594.00174v.0496c-.00921.38612-.21433.7412-.5447.94292L8.5442 14.16587a1.09997 1.09997 0 0 1-.5457.13823 1.10394 1.10394 0 0 1-.54668-.13823L3.0457 11.62935c-.33061-.20161-.53608-.55666-.54569-.94292v-1.483h.00502zm1.1656 0V10.642l4.3279 2.4911 4.3279-2.4911V6.35885l-4.02485 2.4368a.58385.58385 0 0 1-.6071 0l-4.02386-2.4368v2.84457zm.5545-5.21137l3.2277-1.8571c.34071-.17993.7487-.17993 1.0894 0l3.23976 1.85928-1.17376.6756-2.6097-1.50211-2.60278 1.49813-1.17062-.6738z"/>
</svg>
