<?xml version="1.0" encoding="utf-8"?>
<svg
  version="1.1"
  xmlns="http://www.w3.org/2000/svg"
  xmlns:xlink="http://www.w3.org/1999/xlink"
  x="0px"
  y="0px"
  viewBox="0 0 14 16"
  xml:space="preserve">
  <path d="M12.8,3.3L8.2,0.5c-0.6-0.4-1.7-0.4-2.3,0L1.2,3.3C0.5,3.6,0,4.5,0,5.3v5.5c0,0.7,0.5,1.6,1.2,2l4.7,2.7 c0.6,0.4,1.7,0.4,2.3,0l4.7-2.7c0.6-0.4,1.2-1.3,1.2-2V5.3C14,4.5,13.5,3.6,12.8,3.3z M6.5,2.1c0.3-0.2,0.7-0.2,1.1,0l3.2,1.9 L9.6,4.6L7,3.1L4.4,4.6L3.3,3.9L6.5,2.1z M12.4,10.6L12.4,10.6c0,0.4-0.2,0.8-0.5,1l-4.4,2.5c-0.2,0.1-0.4,0.1-0.5,0.1 c-0.2,0-0.4,0-0.5-0.1l-4.4-2.5c-0.3-0.2-0.5-0.6-0.5-0.9V9.1h0l0-3.9c0-0.2,0.1-0.4,0.3-0.5c0.2-0.1,0.4-0.1,0.6,0L7,7.5l4.6-2.8 c0.2-0.1,0.4-0.1,0.6,0c0.2,0.1,0.3,0.3,0.3,0.5L12.4,10.6L12.4,10.6z" />
  <path d="M6.7,8.7l-4-2.4v4.3L7,13.1l4.3-2.5V6.3l-4,2.4C7.1,8.8,6.9,8.8,6.7,8.7z" />
</svg>
