<?xml version="1.0" encoding="UTF-8"?>
<svg viewBox="0 0 16 16" xmlns="http://www.w3.org/2000/svg">
  <g fill="none" fill-rule="evenodd">
    <path d="M10,7 L10,9 L13,9 C13.553,9 14,9.448 14,10 L14,13 C14,13.552 13.553,14 13,14 L10,14 C9.447,14 9,13.552 9,13 L9,10 L7,10 L7,13.1681222 C7,13.6273187 6.553,14 6,14 L3,14 C2.447,14 2,13.6273187 2,13.1681222 L2,9.84061091 C2,9.38058248 2.447,9 3,9 L6.5,9 L9,9 L9,6.5 L9,3.2 C9,2.5364 9.447,2 10,2 L13,2 C13.553,2 14,2.5376 14,3.2 L14,5.8 C14,6.4624 13.553,7 13,7 L10,7 Z M10,10 L10,11.5 L10,13 L13,13 L13,10 L11.5,10 L10,10 Z" fill="#000"/>
    <path d="M6,2 C6.553,2 7,2.448 7,3 L7,7 L3,7 C2.447,7 2,6.552 2,6 L2,3 C2,2.447 2.447,2 3,2 L6,2 Z" fill="#000"/>
  </g>
</svg>
