<svg xmlns="http://www.w3.org/2000/svg" x="0" y="0" viewBox="0 0 14 12">
  <g fill="none" fill-rule="evenodd">
    <path fill="#000" d="M13 2c0 1.105-.733 2-1.636 2H2.636C1.733 4 1 3.105 1 2s.733-2 1.636-2h8.728C12.267 0 13 .895 13 2zm-2 1a1 1 0 1 0 0-2 1 1 0 0 0 0 2zM2.5 3a.5.5 0 1 0 0-1 .5.5 0 0 0 0 1zm2 0a.5.5 0 1 0 0-1 .5.5 0 0 0 0 1zM6.5 9H2.636C1.733 9 1 8.105 1 7s.733-2 1.636-2h8.728C12.267 5 13 5.895 13 7s-.733 2-1.636 2H7.5v1.134a1 1 0 1 1-1 0V9zm1.915 1.5H13.5a.5.5 0 1 1 0 1H8.415a1.498 1.498 0 0 0 0-1zm-2.83 0a1.498 1.498 0 0 0 0 1H.5a.5.5 0 1 1 0-1h5.085zM11 8a1 1 0 1 0 0-2 1 1 0 0 0 0 2zM2.5 8a.5.5 0 1 0 0-1 .5.5 0 0 0 0 1zm2 0a.5.5 0 1 0 0-1 .5.5 0 0 0 0 1z"/>
  </g>
</svg>
