<svg x="0" y="0" viewBox="0 0 16 16" xmlns="http://www.w3.org/2000/svg">
  <path d="M12.286 15.002A8.16 8.16 0 0 1 9.848 16a2.052 2.052 0 0 0-3.696 0 8.16 8.16 0 0 1-2.438-.998 2.052 2.052 0 0 0-2.716-2.716A8.16 8.16 0 0 1 0 9.848a2.052 2.052 0 0 0 0-3.696 8.16 8.16 0 0 1 .998-2.438A2.052 2.052 0 0 0 3.714.998 8.16 8.16 0 0 1 6.152 0a2.052 2.052 0 0 0 3.696 0 8.16 8.16 0 0 1 2.438.998 2.052 2.052 0 0 0 2.716 2.716A8.16 8.16 0 0 1 16 6.152a2.052 2.052 0 0 0 0 3.696 8.16 8.16 0 0 1-.998 2.438 2.052 2.052 0 0 0-2.716 2.716zM8 13.472A5.473 5.473 0 1 0 8 2.528a5.473 5.473 0 0 0 0 10.946zm-1.712-3.436a.384.384 0 0 1-.265-.108L4 8l2.135-2.035a.382.382 0 0 1 .564.036.45.45 0 0 1-.033.605L5.203 8l1.35 1.287a.45.45 0 0 1 .034.605.386.386 0 0 1-.299.144zm3.577-.001a.384.384 0 0 1-.564-.036.45.45 0 0 1 .033-.605L10.797 8l-1.35-1.287a.45.45 0 0 1-.034-.605.38.38 0 0 1 .564-.036L12 8l-2.135 2.035zm-1.87.607A.409.409 0 0 1 7.6 11a.384.384 0 0 1-.066-.006c-.218-.039-.365-.26-.329-.493l.8-5.143c.035-.233.24-.391.46-.352.217.039.364.26.328.493l-.8 5.143z" fill="#1C1D1D" fill-rule="evenodd"/>
</svg>
