<svg xmlns="http://www.w3.org/2000/svg" x="0" y="0" viewBox="0 0 14 14">
  <g fill="none" fill-rule="evenodd" transform="translate(-1 -1)">
    <circle cx="8" cy="8" r="3" fill="#1C1D1D"/>
    <path fill="#1C1D1D" d="M15 6V3a2 2 0 0 0-2-2h-3a1 1 0 1 0 0 2h2a1 1 0 0 1 1 1v2a1 1 0 0 0 2 0zM15 10v3a2 2 0 0 1-2 2h-3a1 1 0 0 1 0-2h2a1 1 0 0 0 1-1v-2a1 1 0 0 1 2 0zM4 13h2a1 1 0 0 1 0 2H3a2 2 0 0 1-2-2v-3a1 1 0 1 1 2 0v2a1 1 0 0 0 1 1zM4 3h2a1 1 0 1 0 0-2H3a2 2 0 0 0-2 2v3a1 1 0 1 0 2 0V4a1 1 0 0 1 1-1z"/>
  </g>
</svg>
