<svg xmlns="http://www.w3.org/2000/svg" x="0" y="0" viewBox="0 0 16 15">
  <g fill="none" fill-rule="evenodd">
    <path fill="#000" d="M7.913 14.926a7 7 0 1 1 0-14 7 7 0 0 1 0 14zm0-1a6 6 0 1 0 0-12 6 6 0 0 0 0 12z"/>
    <path fill="#000" d="M4.17 4.183a.5.5 0 0 1 .707 0L8.413 7.72a.5.5 0 0 1-.707.707L4.17 4.891a.5.5 0 0 1 0-.708zM15.796 4.741a8.527 8.527 0 0 0-4.68-4.69.5.5 0 0 0-.377.926 7.527 7.527 0 0 1 4.13 4.14.5.5 0 1 0 .927-.376zM4.745.036A8.527 8.527 0 0 0 .037 4.724a.5.5 0 1 0 .926.377A7.527 7.527 0 0 1 5.118.964a.5.5 0 1 0-.373-.928z"/>
  </g>
</svg>
