<svg xmlns="http://www.w3.org/2000/svg" y="0" x="0" viewBox="0 0 16 16">
  <path fill-rule="evenodd" d="M2.17037 4.09354l12.28257 7.42645-.6466 1.06894-1.23087-.74429-4.03126 2.32123a1.09997 1.09997 0 0 1-.5457.13823 1.10394 1.10394 0 0 1-.54668-.13823L3.0457 11.62935c-.33061-.20161-.53608-.55666-.54569-.94292v-1.483h.00502l-.00446-3.45095-.97651-.59048.64632-1.06846zm9.26469 7.06151L3.67061 6.46v4.182l4.3279 2.4911 3.43655-1.97805zm-1.17622-3.54441l-1.12425-.68387 3.47309-2.10326a.58685.58685 0 0 1 .59028-.01268c.18465.10226.2997.29578.30105.50636l.0008 4.25954-.98489-.59374-.1885-.11467V6.35885l-2.06758 1.25179zM4.24927 3.97816l3.20355-1.84322c.34071-.17992.7487-.17992 1.0894 0l3.23976 1.8593-1.17376.6756-2.6097-1.50212-2.60278 1.49813-.1244-.0716-1.02207-.6161z"/>
</svg>
