<svg x="0" y="0" viewBox="0 0 16 16" xmlns="http://www.w3.org/2000/svg">
  <path d="M7.998 3.206L5.326 4.783a.625.625 0 1 1-.636-1.077L7.682 1.94a.625.625 0 0 1 .639.002l4.84 2.897a.625.625 0 0 1 .305.536v1.884a.625.625 0 1 1-1.25 0V5.73L7.998 3.206zm4.218 7.053a.625.625 0 0 1 1.25 0v.66c0 .22-.116.425-.306.538l-4.84 2.881a.625.625 0 0 1-.636.002l-4.059-2.383a.625.625 0 1 1 .633-1.078l3.74 2.196 4.218-2.51v-.306zM3.718 8.904a.625.625 0 1 1-1.25 0V5.375c0-.485.529-.785.945-.537l4.579 2.73 1.166-.73a.625.625 0 1 1 .664 1.06l-1.49.933a.625.625 0 0 1-.652.007L3.718 6.475v2.429z" fill="#20242B" fill-rule="nonzero"/>
</svg>
