<?xml version="1.0" encoding="UTF-8"?>
<svg viewBox="0 0 16 16" xmlns="http://www.w3.org/2000/svg">
  <path d="M8.5,13 L8.5,10.5 C8.5,10.3619288 8.44403559,10.2369288 8.35355339,10.1464466 L7.06066017,8.85355339 C6.86539803,8.65829124 6.54881554,8.65829124 6.35355339,8.85355339 C6.15829124,9.04881554 6.15829124,9.36539803 6.35355339,9.56066017 L7.5,10.7071068 L7.5,13 L5.5,13 L5.5,12 C5.28,10.78 4.84,10.25 3.5,8 C3.05,7.25 2.5,5.92 2.5,5 C2.5,2.19 4.98,0 8,0 C11.02,0 13.5,2.19 13.5,5 C13.5,5.92 12.95,7.25 12.5,8 C11.16,10.25 10.72,10.78 10.5,12 L10.5,13 L8.5,13 Z M5.5,14 L10.5,14 C10.27,15.14 9.2,16 8,16 C6.8,16 5.73,15.14 5.5,14 Z M6.70710678,6 C6.51184464,5.80473785 6.19526215,5.80473785 6,6 C5.80473785,6.19526215 5.80473785,6.51184464 6,6.70710678 L8.56066017,9.26776695 C8.75592232,9.4630291 9.07250481,9.4630291 9.26776695,9.26776695 C9.4630291,9.07250481 9.4630291,8.75592232 9.26776695,8.56066017 L6.70710678,6 Z M8.06066017,4.85355339 C7.86539803,4.65829124 7.54881554,4.65829124 7.35355339,4.85355339 C7.15829124,5.04881554 7.15829124,5.36539803 7.35355339,5.56066017 L8.56066017,6.76776695 C8.75592232,6.9630291 9.07250481,6.9630291 9.26776695,6.76776695 C9.4630291,6.57250481 9.4630291,6.25592232 9.26776695,6.06066017 L8.06066017,4.85355339 Z"/>
</svg>
