<?xml version="1.0" encoding="UTF-8"?>
<svg viewBox="0 0 16 16" xmlns="http://www.w3.org/2000/svg">
  <path d="M7.5,2.00015819 L7.5,1.01699198 L8.5,1.01699198 L8.5,2.00015819 L12.87,2.00015819 C13.37,2.00015819 13.79,2.38015819 13.87,2.86015819 L15,8.9 L15,13.9 C15,14.45 14.55,14.9 14,14.9 L2,14.9 C1.45,14.9 1,14.45 1,13.9 L1,8.9 L2.13,2.86015819 C2.21,2.38015819 2.63,2.00015819 3.13,2.00015819 L7.5,2.00015819 Z M7.5,3.00094575 L3,3.00094575 L2,9.00722235 L3.39,9.00722235 C3.76,9.00722235 4.11,9.22418728 4.28,9.54963468 L4.72,10.3575877 C4.89,10.6830351 5.23,10.9 5.61,10.9 L10.37,10.9 C10.76,10.9 11.11,10.6830351 11.28,10.3477256 L11.71,9.46014182 C11.89,9.13469442 12.23,9.00722235 12.62,9.00722235 L14,9.00722235 L13,3.00094575 L8.5,3.00094575 L8.5,7.68387097 L11.1,5 L11.8,5.7 L8,9.6 L4,5.7 L4.7,5 L7.5,7.71515152 L7.5,3.00094575 Z"/>
</svg>
