<?xml version="1.0" encoding="UTF-8"?>
<svg viewBox="0 0 16 16" xmlns="http://www.w3.org/2000/svg">
  <path d="M7.10713461,8.44030676 C6.68681629,7.87094304 6.00406186,7.5 5.25,7.5 C4.00735931,7.5 3,8.50735931 3,9.75 C3,10.9926407 4.00735931,12 5.25,12 C6.28792613,12 7.19075276,11.297209 7.46004979,10.3415352 C7.97527321,10.7563472 8.57047809,11.0758375 9.21888269,11.2732243 C8.60643034,12.8680151 7.06040979,14 5.25,14 C2.90278981,14 1,12.0972102 1,9.75 C1,7.40278981 2.90278981,5.5 5.25,5.5 C6.77598998,5.5 8.11413768,6.30424843 8.86369943,7.51200162 C9.27838345,8.1082552 9.97508336,8.5 10.75,8.5 C11.9926407,8.5 13,7.49264069 13,6.25 C13,5.00735931 11.9926407,4 10.75,4 C9.71042026,4 8.81160895,4.70503208 8.54561794,5.66303439 C8.02909362,5.24599882 7.43190086,4.92488673 6.78111731,4.72677574 C7.39356966,3.1319849 8.93959021,2 10.75,2 C13.0972102,2 15,3.90278981 15,6.25 C15,8.59721019 13.0972102,10.5 10.75,10.5 C9.20401116,10.5 7.85082041,9.67453329 7.10713461,8.44030676 Z"/>
</svg>
