<?xml version="1.0" encoding="UTF-8"?>
<svg viewBox="0 0 16 16" xmlns="http://www.w3.org/2000/svg">
  <path d="M6.49835471,11 L15,11 L15,3 L9.94856247,3 L8.60331451,6.0120985 L11.0033145,6.0120985 L6.49835471,11 Z M6.04710517,11 L7.4,8.00639192 L5,8.00639192 L9.49693802,3 L1,3 L1,11 L6.04710517,11 Z M15,2 C15.55,2 16,2.45 16,3 L16,12 C16,12.55 15.55,13 15,13 L9.66,13 C9.91,13.61 10.52,14.39 12,15 L4,15 C5.48,14.39 6.09,13.61 6.34,13 L1,13 C0.45,13 0,12.55 0,12 L0,3 C0,2.45 0.45,2 1,2 L15,2 Z"/>
</svg>
