<?xml version="1.0" encoding="UTF-8"?>
<svg viewBox="0 0 16 16" xmlns="http://www.w3.org/2000/svg">
  <path d="M12,0 C12.55,0 13,0.45 13,1 L13,15 C13,15.55 12.55,16 12,16 L4,16 C3.45,16 3,15.55 3,15 L3,1 C3,0.45 3.45,0 4,0 L12,0 Z M8,15 C8.55384615,15 9,14.5538462 9,14 C9,13.4461538 8.55384615,13 8,13 C7.44615385,13 7,13.4461538 7,14 C7,14.5538462 7.44615385,15 8,15 Z M12,12 L12,2 L4,2 L4,12 L12,12 Z M11.0033145,6.0120985 L5.59517733,12 L7.4,8.00639192 L5,8.00639192 L10.3951773,2 L8.60331451,6.0120985 L11.0033145,6.0120985 Z"/>
</svg>
