<?xml version="1.0" encoding="UTF-8"?>
<svg viewBox="0 0 16 16" xmlns="http://www.w3.org/2000/svg">
  <path d="M5.94206946,12.5582043 C6.56970077,12.842012 7.26640035,13 8,13 C10.7614237,13 13,10.7614237 13,8 C13,6.00471784 11.8312694,4.28240734 10.1410438,3.48030414 L8.57592466,6.98470865 L10.9759247,6.98470865 L5.94206946,12.5582043 Z M5.78800156,12.4853331 L7.37261015,8.97900207 L4.97261015,8.97900207 L9.97803993,3.40651183 C9.37138363,3.14492464 8.7026163,3 8,3 C5.23857625,3 3,5.23857625 3,8 C3,9.96723961 4.13610979,11.6691266 5.78800156,12.4853331 Z M8,15 C4.13400675,15 1,11.8659932 1,8 C1,4.13400675 4.13400675,1 8,1 C11.8659932,1 15,4.13400675 15,8 C15,11.8659932 11.8659932,15 8,15 Z" fill-rule="evenodd"/>
</svg>
