<?xml version="1.0" encoding="utf-8"?>
<svg version="1.1" id="Layer_1" xmlns="http://www.w3.org/2000/svg" xmlns:xlink="http://www.w3.org/1999/xlink" x="0px" y="0px" viewBox="-700.2 -266 300 360" style="enable-background:new -700.2 -266 300 360;" xml:space="preserve">
	<path fill="#9B4DCA" d="M-492.6-134.1c-76.9-76.2-166.8-110.3-196.8-80.4c-4.1,4.1-7.3,9.9-8.9,16.3c-6.7,24.6,4.8,63.5,30.6,105.6 l13.1-12.8c-22.3-37-31.3-69.8-26.5-88c1-3.5,2.6-6.4,4.5-8.3c8.9-8.9,33.2-7.3,61.6,4.1c35.4,14,75.6,41.8,110,76.2 c64.1,63.5,93.8,132.7,85.8,162.7c-1,3.5-2.6,6.4-4.5,8.3c-8.9,8.9-33.2,7.3-61.6-4.1c-15-6.1-31.3-14.7-47.2-25.2L-545.5,33 c57.7,38.6,112.3,51.3,134.6,29c4.1-4.1,7.3-9.9,8.9-16.3C-391.5,6.9-426.6-68.4-492.6-134.1z" />
	<polygon fill="#6A1B9A" points="-596.9,-86 -596.9,93.9 -414.8,-86.6 -414.8,-265.8" />
	<polygon fill="#4A148C" points="-604.5,-88.8 -506.6,-185.8 -506.6,-265.8 -506.6,-265.8 -688.7,-86 -688.7,93.9 -604.5,10.4" />
	<path fill="#9B4DCA" d="M-505-121.4c33.5,33.5,57.7,68.2,72.1,98.2h19.5c-15-34.8-42.1-74.3-79.1-111 c-53.6-52.9-113.2-85.8-154.7-90.6v17.9c9.6,1.3,20.4,4.5,32.2,8.9C-579.7-183.5-539.5-155.8-505-121.4z" />
</svg>
